<mxfile host="Electron" modified="2024-07-07T12:10:09.212Z" agent="Mozilla/5.0 (Windows NT 10.0; Win64; x64) AppleWebKit/537.36 (KHTML, like Gecko) draw.io/21.6.5 Chrome/114.0.5735.243 Electron/25.3.1 Safari/537.36" etag="NmnEn3nAGNXVov356eYu" version="21.6.5" type="device">
  <diagram name="Page-1" id="Hjnly-ObfNYb1SgSj2E5">
    <mxGraphModel dx="1985" dy="955" grid="1" gridSize="10" guides="1" tooltips="1" connect="1" arrows="1" fold="1" page="1" pageScale="1" pageWidth="827" pageHeight="1169" math="0" shadow="0">
      <root>
        <mxCell id="0" />
        <mxCell id="1" parent="0" />
        <mxCell id="CQddjoPvEdrn5OGaLywG-10" style="edgeStyle=orthogonalEdgeStyle;rounded=0;orthogonalLoop=1;jettySize=auto;html=1;entryX=0;entryY=0.5;entryDx=0;entryDy=0;" edge="1" parent="1" source="CQddjoPvEdrn5OGaLywG-1" target="CQddjoPvEdrn5OGaLywG-2">
          <mxGeometry relative="1" as="geometry" />
        </mxCell>
        <mxCell id="CQddjoPvEdrn5OGaLywG-1" value="&lt;b&gt;&lt;font style=&quot;font-size: 18px;&quot;&gt;Load from MongoDB&lt;/font&gt;&lt;/b&gt;" style="rounded=1;whiteSpace=wrap;html=1;" vertex="1" parent="1">
          <mxGeometry x="390" y="140" width="170" height="90" as="geometry" />
        </mxCell>
        <mxCell id="CQddjoPvEdrn5OGaLywG-14" value="" style="edgeStyle=orthogonalEdgeStyle;rounded=0;orthogonalLoop=1;jettySize=auto;html=1;entryX=0;entryY=0.5;entryDx=0;entryDy=0;" edge="1" parent="1" source="CQddjoPvEdrn5OGaLywG-2" target="CQddjoPvEdrn5OGaLywG-13">
          <mxGeometry relative="1" as="geometry" />
        </mxCell>
        <mxCell id="CQddjoPvEdrn5OGaLywG-2" value="&lt;font style=&quot;font-size: 18px;&quot;&gt;Load Vector Store&lt;br&gt;[Chroma DB]&lt;/font&gt;" style="rounded=1;whiteSpace=wrap;html=1;" vertex="1" parent="1">
          <mxGeometry x="650" y="140" width="170" height="90" as="geometry" />
        </mxCell>
        <mxCell id="CQddjoPvEdrn5OGaLywG-5" style="edgeStyle=orthogonalEdgeStyle;rounded=0;orthogonalLoop=1;jettySize=auto;html=1;entryX=0;entryY=0.5;entryDx=0;entryDy=0;" edge="1" parent="1" source="CQddjoPvEdrn5OGaLywG-4" target="CQddjoPvEdrn5OGaLywG-1">
          <mxGeometry relative="1" as="geometry" />
        </mxCell>
        <mxCell id="CQddjoPvEdrn5OGaLywG-4" value="" style="ellipse;shape=doubleEllipse;html=1;dashed=0;whiteSpace=wrap;aspect=fixed;" vertex="1" parent="1">
          <mxGeometry x="230" y="155" width="60" height="60" as="geometry" />
        </mxCell>
        <mxCell id="CQddjoPvEdrn5OGaLywG-6" value="" style="shape=curlyBracket;whiteSpace=wrap;html=1;rounded=1;flipH=1;labelPosition=right;verticalLabelPosition=middle;align=left;verticalAlign=middle;rotation=-90;" vertex="1" parent="1">
          <mxGeometry x="463" y="140" width="20" height="250" as="geometry" />
        </mxCell>
        <mxCell id="CQddjoPvEdrn5OGaLywG-8" value="Client Data" style="shape=process;whiteSpace=wrap;html=1;backgroundOutline=1;" vertex="1" parent="1">
          <mxGeometry x="483" y="290" width="120" height="60" as="geometry" />
        </mxCell>
        <mxCell id="CQddjoPvEdrn5OGaLywG-9" value="Discovery Services" style="shape=process;whiteSpace=wrap;html=1;backgroundOutline=1;" vertex="1" parent="1">
          <mxGeometry x="354" y="290" width="120" height="60" as="geometry" />
        </mxCell>
        <mxCell id="CQddjoPvEdrn5OGaLywG-11" value="" style="shape=image;verticalLabelPosition=bottom;labelBackgroundColor=default;verticalAlign=top;aspect=fixed;imageAspect=0;image=https://miro.medium.com/v2/resize:fit:512/1*doAg1_fMQKWFoub-6gwUiQ.png;" vertex="1" parent="1">
          <mxGeometry x="425" y="40" width="100" height="100" as="geometry" />
        </mxCell>
        <mxCell id="CQddjoPvEdrn5OGaLywG-12" value="" style="shape=image;verticalLabelPosition=bottom;labelBackgroundColor=default;verticalAlign=top;aspect=fixed;imageAspect=0;image=https://miro.medium.com/v2/resize:fit:1044/1*d2XUNgrLw7687CDfXx9-Dw.png;" vertex="1" parent="1">
          <mxGeometry x="685" y="40" width="100" height="94.45" as="geometry" />
        </mxCell>
        <mxCell id="CQddjoPvEdrn5OGaLywG-33" style="edgeStyle=orthogonalEdgeStyle;rounded=0;orthogonalLoop=1;jettySize=auto;html=1;entryX=0;entryY=0.5;entryDx=0;entryDy=0;" edge="1" parent="1" source="CQddjoPvEdrn5OGaLywG-13" target="CQddjoPvEdrn5OGaLywG-16">
          <mxGeometry relative="1" as="geometry" />
        </mxCell>
        <mxCell id="CQddjoPvEdrn5OGaLywG-13" value="&lt;span style=&quot;font-size: 18px;&quot;&gt;Record User &lt;br&gt;Prompt&lt;/span&gt;" style="rounded=1;whiteSpace=wrap;html=1;" vertex="1" parent="1">
          <mxGeometry x="890" y="140" width="150" height="90" as="geometry" />
        </mxCell>
        <mxCell id="CQddjoPvEdrn5OGaLywG-21" value="" style="edgeStyle=orthogonalEdgeStyle;rounded=0;orthogonalLoop=1;jettySize=auto;html=1;" edge="1" parent="1" source="CQddjoPvEdrn5OGaLywG-16" target="CQddjoPvEdrn5OGaLywG-20">
          <mxGeometry relative="1" as="geometry" />
        </mxCell>
        <mxCell id="CQddjoPvEdrn5OGaLywG-16" value="&lt;font style=&quot;font-size: 14px;&quot;&gt;Open AI API call&lt;/font&gt;" style="ellipse;whiteSpace=wrap;html=1;" vertex="1" parent="1">
          <mxGeometry x="1100" y="145" width="120" height="80" as="geometry" />
        </mxCell>
        <mxCell id="CQddjoPvEdrn5OGaLywG-19" style="edgeStyle=orthogonalEdgeStyle;rounded=0;orthogonalLoop=1;jettySize=auto;html=1;" edge="1" parent="1" source="CQddjoPvEdrn5OGaLywG-18" target="CQddjoPvEdrn5OGaLywG-16">
          <mxGeometry relative="1" as="geometry" />
        </mxCell>
        <mxCell id="CQddjoPvEdrn5OGaLywG-18" value="&lt;font style=&quot;font-size: 18px;&quot;&gt;Prompt template &amp;amp; Context&amp;nbsp;&lt;/font&gt;" style="shape=process;whiteSpace=wrap;html=1;backgroundOutline=1;" vertex="1" parent="1">
          <mxGeometry x="1087" y="20" width="146" height="90" as="geometry" />
        </mxCell>
        <mxCell id="CQddjoPvEdrn5OGaLywG-28" style="edgeStyle=orthogonalEdgeStyle;rounded=0;orthogonalLoop=1;jettySize=auto;html=1;entryX=0.5;entryY=0;entryDx=0;entryDy=0;" edge="1" parent="1" source="CQddjoPvEdrn5OGaLywG-20" target="CQddjoPvEdrn5OGaLywG-27">
          <mxGeometry relative="1" as="geometry" />
        </mxCell>
        <mxCell id="CQddjoPvEdrn5OGaLywG-34" style="edgeStyle=orthogonalEdgeStyle;rounded=0;orthogonalLoop=1;jettySize=auto;html=1;entryX=0;entryY=0.5;entryDx=0;entryDy=0;" edge="1" parent="1" source="CQddjoPvEdrn5OGaLywG-20" target="CQddjoPvEdrn5OGaLywG-22">
          <mxGeometry relative="1" as="geometry" />
        </mxCell>
        <mxCell id="CQddjoPvEdrn5OGaLywG-20" value="&lt;font style=&quot;font-size: 18px;&quot;&gt;Upload to MongoDB&lt;/font&gt;" style="whiteSpace=wrap;html=1;" vertex="1" parent="1">
          <mxGeometry x="1280" y="155" width="120" height="60" as="geometry" />
        </mxCell>
        <mxCell id="CQddjoPvEdrn5OGaLywG-22" value="&lt;span style=&quot;font-size: 18px;&quot;&gt;Output to wesbite&lt;/span&gt;" style="rounded=1;whiteSpace=wrap;html=1;" vertex="1" parent="1">
          <mxGeometry x="1450" y="140" width="170" height="90" as="geometry" />
        </mxCell>
        <mxCell id="CQddjoPvEdrn5OGaLywG-25" value="" style="shape=image;verticalLabelPosition=bottom;labelBackgroundColor=default;verticalAlign=top;aspect=fixed;imageAspect=0;image=https://static.vecteezy.com/system/resources/previews/022/227/364/non_2x/openai-chatgpt-logo-icon-free-png.png;" vertex="1" parent="1">
          <mxGeometry x="1090" y="240" width="100" height="100" as="geometry" />
        </mxCell>
        <mxCell id="CQddjoPvEdrn5OGaLywG-26" value="" style="shape=image;verticalLabelPosition=bottom;labelBackgroundColor=default;verticalAlign=top;aspect=fixed;imageAspect=0;image=https://seeklogo.com/images/S/streamlit-logo-B405F7E2FC-seeklogo.com.png;" vertex="1" parent="1">
          <mxGeometry x="1455" y="59.79000000000002" width="160" height="74.66" as="geometry" />
        </mxCell>
        <mxCell id="CQddjoPvEdrn5OGaLywG-27" value="&lt;font style=&quot;font-size: 18px;&quot;&gt;Analytics and insights&lt;br&gt;Page [for internal use]&lt;/font&gt;" style="rounded=1;whiteSpace=wrap;html=1;" vertex="1" parent="1">
          <mxGeometry x="1240" y="400" width="200" height="120" as="geometry" />
        </mxCell>
        <mxCell id="CQddjoPvEdrn5OGaLywG-29" value="" style="shape=image;verticalLabelPosition=bottom;labelBackgroundColor=default;verticalAlign=top;aspect=fixed;imageAspect=0;image=https://cryptologos.cc/logos/dash-dash-logo.png;" vertex="1" parent="1">
          <mxGeometry x="1120" y="470" width="100" height="100" as="geometry" />
        </mxCell>
        <mxCell id="CQddjoPvEdrn5OGaLywG-30" value="" style="shape=image;verticalLabelPosition=bottom;labelBackgroundColor=default;verticalAlign=top;aspect=fixed;imageAspect=0;image=https://upload.wikimedia.org/wikipedia/commons/8/8a/Plotly-logo.png;" vertex="1" parent="1">
          <mxGeometry x="1233" y="520" width="220" height="73.33" as="geometry" />
        </mxCell>
      </root>
    </mxGraphModel>
  </diagram>
</mxfile>
